<svg width="464" height="371" viewBox="0 0 464 371" fill="none" xmlns="http://www.w3.org/2000/svg">
<rect x="127.5" y="105.5" width="209" height="153" rx="17.5" fill="white" stroke="#7D7D7D" stroke-width="5"/>
<rect width="39.5077" height="38.2733" transform="translate(156.277 127.043)" fill="#F59D18"/>
<g filter="url(#filter0_d_35_1626)">
<rect x="156.277" y="132.912" width="39.5077" height="32.2312" fill="#EBEF11"/>
</g>
<g filter="url(#filter1_d_35_1626)">
<ellipse rx="4.57795" ry="1.18013" transform="matrix(0.943122 -0.332447 0.451364 0.89234 171.902 122.918)" fill="black"/>
<rect width="3.66236" height="3.93377" transform="matrix(0.943122 -0.332447 0.451364 0.89234 170.175 123.527)" fill="black"/>
<rect width="0.457795" height="4.72053" transform="matrix(0.943122 -0.332447 0.451364 0.89234 173.591 126.459)" fill="black"/>
</g>
<rect width="39.5077" height="38.2733" transform="translate(182.615 190.587)" fill="#F59D18"/>
<g filter="url(#filter2_d_35_1626)">
<rect x="182.615" y="196.456" width="39.5077" height="32.2312" fill="#EBEF11"/>
</g>
<g filter="url(#filter3_d_35_1626)">
<ellipse rx="4.57795" ry="1.18013" transform="matrix(0.943122 -0.332447 0.451364 0.89234 198.24 186.462)" fill="black"/>
<rect width="3.66236" height="3.93377" transform="matrix(0.943122 -0.332447 0.451364 0.89234 196.513 187.07)" fill="black"/>
<rect width="0.457795" height="4.72053" transform="matrix(0.943122 -0.332447 0.451364 0.89234 199.93 190.002)" fill="black"/>
</g>
<rect width="39.5077" height="38.2733" transform="translate(251.754 123.609)" fill="#F59D18"/>
<g filter="url(#filter4_d_35_1626)">
<rect x="251.754" y="129.477" width="39.5077" height="32.2312" fill="#EBEF11"/>
</g>
<g filter="url(#filter5_d_35_1626)">
<ellipse rx="4.57795" ry="1.18013" transform="matrix(0.943122 -0.332447 0.451364 0.89234 267.379 119.483)" fill="black"/>
<rect width="3.66236" height="3.93377" transform="matrix(0.943122 -0.332447 0.451364 0.89234 265.652 120.092)" fill="black"/>
<rect width="0.457795" height="4.72053" transform="matrix(0.943122 -0.332447 0.451364 0.89234 269.068 123.024)" fill="black"/>
</g>
<rect width="39.5077" height="38.2807" transform="translate(202.369 144.217)" fill="#EBEF11"/>
<g filter="url(#filter6_d_35_1626)">
<rect x="202.369" y="150.087" width="39.5077" height="32.2374" fill="#F59D18"/>
</g>
<g filter="url(#filter7_d_35_1626)">
<ellipse rx="4.57805" ry="1.18031" transform="matrix(0.943102 -0.332504 0.451295 0.892375 217.994 140.091)" fill="black"/>
<rect width="3.66244" height="3.93438" transform="matrix(0.943102 -0.332504 0.451295 0.892375 216.267 140.7)" fill="black"/>
<rect width="0.457805" height="4.72125" transform="matrix(0.943102 -0.332504 0.451295 0.892375 219.684 143.633)" fill="black"/>
</g>
<rect width="39.5077" height="38.2807" transform="translate(256.692 202.609)" fill="#EBEF11"/>
<g filter="url(#filter8_d_35_1626)">
<rect x="256.692" y="208.478" width="39.5077" height="32.2374" fill="#F59D18"/>
</g>
<g filter="url(#filter9_d_35_1626)">
<ellipse rx="4.57805" ry="1.18031" transform="matrix(0.943102 -0.332504 0.451295 0.892375 272.318 198.482)" fill="black"/>
<rect width="3.66244" height="3.93438" transform="matrix(0.943102 -0.332504 0.451295 0.892375 270.59 199.091)" fill="black"/>
<rect width="0.457805" height="4.72125" transform="matrix(0.943102 -0.332504 0.451295 0.892375 274.007 202.024)" fill="black"/>
</g>
<ellipse cx="143.684" cy="303.638" rx="18.2536" ry="12.6384" fill="#1EB4F4"/>
<path fill-rule="evenodd" clip-rule="evenodd" d="M168.66 365.5C169.931 361.386 170.63 356.896 170.63 352.196C170.63 332.359 158.177 316.277 142.815 316.277C127.453 316.277 115 332.359 115 352.196C115 356.896 115.699 361.386 116.97 365.5H168.66Z" fill="#1EB4F4"/>
<ellipse cx="89.6096" cy="214.851" rx="18.8425" ry="16.8512" fill="#C4C4C4"/>
<path fill-rule="evenodd" clip-rule="evenodd" d="M115.391 297.333C116.703 291.847 117.425 285.862 117.425 279.595C117.425 253.145 104.57 231.702 88.7123 231.702C72.8549 231.702 60 253.145 60 279.595C60 285.862 60.7216 291.847 62.0337 297.333H115.391Z" fill="#C4C4C4"/>
<ellipse cx="390.909" cy="278.337" rx="16.4872" ry="12.3375" fill="#C4C4C4"/>
<path fill-rule="evenodd" clip-rule="evenodd" d="M413.467 338.726C414.615 334.71 415.247 330.327 415.247 325.739C415.247 306.374 403.998 290.675 390.123 290.675C376.248 290.675 365 306.374 365 325.739C365 330.327 365.631 334.71 366.779 338.726H413.467Z" fill="#C4C4C4"/>
<ellipse cx="312.61" cy="287.851" rx="18.8425" ry="16.8512" fill="#1EB4F4"/>
<path fill-rule="evenodd" clip-rule="evenodd" d="M338.391 370.333C339.703 364.847 340.425 358.862 340.425 352.595C340.425 326.145 327.57 304.702 311.712 304.702C295.855 304.702 283 326.145 283 352.595C283 358.862 283.722 364.847 285.034 370.333H338.391Z" fill="#1EB4F4"/>
<ellipse cx="358.684" cy="19.6384" rx="18.2536" ry="12.6384" fill="#1EB4F4"/>
<path fill-rule="evenodd" clip-rule="evenodd" d="M383.66 81.5C384.931 77.3856 385.63 72.8964 385.63 68.1964C385.63 48.3586 373.177 32.2768 357.815 32.2768C342.453 32.2768 330 48.3586 330 68.1964C330 72.8964 330.699 77.3856 331.97 81.5H383.66Z" fill="#1EB4F4"/>
<ellipse cx="82.6096" cy="16.8512" rx="18.8425" ry="16.8512" fill="#C4C4C4"/>
<path fill-rule="evenodd" clip-rule="evenodd" d="M108.391 99.3333C109.703 93.8475 110.425 87.8619 110.425 81.5953C110.425 55.1448 97.5697 33.7024 81.7123 33.7024C65.8549 33.7024 53 55.1448 53 81.5953C53 87.8619 53.7216 93.8475 55.0337 99.3333H108.391Z" fill="#C4C4C4"/>
<ellipse cx="184.909" cy="19.3375" rx="16.4872" ry="12.3375" fill="#C4C4C4"/>
<path fill-rule="evenodd" clip-rule="evenodd" d="M207.467 79.7262C208.615 75.7097 209.247 71.3274 209.247 66.7393C209.247 47.3738 197.998 31.6749 184.123 31.6749C170.248 31.6749 159 47.3738 159 66.7393C159 71.3274 159.631 75.7097 160.779 79.7262H207.467Z" fill="#C4C4C4"/>
<ellipse cx="422.61" cy="48.8512" rx="18.8425" ry="16.8512" fill="#1EB4F4"/>
<path fill-rule="evenodd" clip-rule="evenodd" d="M448.391 131.333C449.703 125.847 450.425 119.862 450.425 113.595C450.425 87.1448 437.57 65.7024 421.712 65.7024C405.855 65.7024 393 87.1448 393 113.595C393 119.862 393.722 125.847 395.034 131.333H448.391Z" fill="#1EB4F4"/>
<ellipse cx="16.5" cy="149.5" rx="10.5" ry="9.5" fill="#1EB4F4"/>
<path fill-rule="evenodd" clip-rule="evenodd" d="M30.8667 196C31.5979 192.907 32 189.533 32 186C32 171.088 24.8366 159 16 159C7.16344 159 0 171.088 0 186C0 189.533 0.402093 192.907 1.13327 196H30.8667Z" fill="#1EB4F4"/>
<ellipse cx="373.438" cy="203.804" rx="9.1875" ry="7.80357" fill="black"/>
<path fill-rule="evenodd" clip-rule="evenodd" d="M386.008 242C386.648 239.46 387 236.688 387 233.786C387 221.537 380.732 211.607 373 211.607C365.268 211.607 359 221.537 359 233.786C359 236.688 359.352 239.46 359.992 242H386.008Z" fill="black"/>
<ellipse cx="272.906" cy="25.0625" rx="19.0312" ry="13.0625" fill="black"/>
<path fill-rule="evenodd" clip-rule="evenodd" d="M298.946 89C300.271 84.7475 301 80.1077 301 75.25C301 54.7464 288.016 38.125 272 38.125C255.984 38.125 243 54.7464 243 75.25C243 80.1077 243.729 84.7475 245.054 89H298.946Z" fill="black"/>
<ellipse cx="26.6562" cy="230.705" rx="13.7812" ry="11.7054" fill="black"/>
<path fill-rule="evenodd" clip-rule="evenodd" d="M45.5126 288C46.4723 284.189 47 280.032 47 275.679C47 257.305 37.598 242.411 26 242.411C14.402 242.411 5 257.305 5 275.679C5 280.032 5.52775 284.189 6.48741 288H45.5126Z" fill="black"/>
<ellipse cx="210.318" cy="278.464" rx="8.59091" ry="7.46429" fill="black"/>
<path fill-rule="evenodd" clip-rule="evenodd" d="M222.073 315C222.671 312.57 223 309.919 223 307.143C223 295.427 217.139 285.929 209.909 285.929C202.679 285.929 196.818 295.427 196.818 307.143C196.818 309.919 197.147 312.57 197.746 315H222.073Z" fill="black"/>
<path fill-rule="evenodd" clip-rule="evenodd" d="M209.091 271.008C208.955 271.003 208.819 271 208.682 271C203.937 271 200.091 274.342 200.091 278.464C200.091 282.587 203.937 285.929 208.682 285.929C208.819 285.929 208.955 285.926 209.091 285.92V271.008Z" fill="#C4C4C4"/>
<path fill-rule="evenodd" clip-rule="evenodd" d="M209.091 285.929C201.861 285.929 196 295.427 196 307.143C196 309.919 196.329 312.57 196.927 315H209.091V285.929Z" fill="#C4C4C4"/>
<ellipse cx="71.8185" cy="96.7589" rx="19.0909" ry="14.7589" fill="black"/>
<path fill-rule="evenodd" clip-rule="evenodd" d="M97.9397 169C99.2691 164.195 100 158.953 100 153.464C100 130.298 86.9757 111.518 70.9093 111.518C54.8428 111.518 41.8184 130.298 41.8184 153.464C41.8184 158.953 42.5494 164.195 43.8788 169H97.9397Z" fill="black"/>
<path fill-rule="evenodd" clip-rule="evenodd" d="M69.0908 82.0164C68.7896 82.0055 68.4865 82 68.1817 82C57.6381 82 49.0908 88.6078 49.0908 96.7589C49.0908 104.91 57.6381 111.518 68.1817 111.518C68.4865 111.518 68.7896 111.512 69.0908 111.501V82.0164Z" fill="#C4C4C4"/>
<path fill-rule="evenodd" clip-rule="evenodd" d="M69.0909 111.518C53.0244 111.518 40 130.298 40 153.464C40 158.953 40.7311 164.195 42.0605 169H69.0909V111.518Z" fill="#C4C4C4"/>
<ellipse cx="435.818" cy="168.759" rx="19.0909" ry="14.7589" fill="black"/>
<path fill-rule="evenodd" clip-rule="evenodd" d="M461.94 241C463.269 236.195 464 230.953 464 225.464C464 202.298 450.976 183.518 434.909 183.518C418.843 183.518 405.818 202.298 405.818 225.464C405.818 230.953 406.549 236.195 407.879 241H461.94Z" fill="black"/>
<path fill-rule="evenodd" clip-rule="evenodd" d="M433.091 154.016C432.79 154.006 432.486 154 432.182 154C421.638 154 413.091 160.608 413.091 168.759C413.091 176.91 421.638 183.518 432.182 183.518C432.486 183.518 432.79 183.512 433.091 183.501V154.016Z" fill="#C4C4C4"/>
<path fill-rule="evenodd" clip-rule="evenodd" d="M433.091 183.518C417.024 183.518 404 202.298 404 225.464C404 230.953 404.731 236.195 406.06 241H433.091V183.518Z" fill="#C4C4C4"/>
<defs>
<filter id="filter0_d_35_1626" x="152.277" y="132.912" width="47.5078" height="40.2312" filterUnits="userSpaceOnUse" color-interpolation-filters="sRGB">
<feFlood flood-opacity="0" result="BackgroundImageFix"/>
<feColorMatrix in="SourceAlpha" type="matrix" values="0 0 0 0 0 0 0 0 0 0 0 0 0 0 0 0 0 0 127 0" result="hardAlpha"/>
<feOffset dy="4"/>
<feGaussianBlur stdDeviation="2"/>
<feComposite in2="hardAlpha" operator="out"/>
<feColorMatrix type="matrix" values="0 0 0 0 0 0 0 0 0 0 0 0 0 0 0 0 0 0 0.25 0"/>
<feBlend mode="normal" in2="BackgroundImageFix" result="effect1_dropShadow_35_1626"/>
<feBlend mode="normal" in="SourceGraphic" in2="effect1_dropShadow_35_1626" result="shape"/>
</filter>
<filter id="filter1_d_35_1626" x="163.052" y="120.343" width="21.0742" height="19.8195" filterUnits="userSpaceOnUse" color-interpolation-filters="sRGB">
<feFlood flood-opacity="0" result="BackgroundImageFix"/>
<feColorMatrix in="SourceAlpha" type="matrix" values="0 0 0 0 0 0 0 0 0 0 0 0 0 0 0 0 0 0 127 0" result="hardAlpha"/>
<feOffset dy="4"/>
<feGaussianBlur stdDeviation="2"/>
<feComposite in2="hardAlpha" operator="out"/>
<feColorMatrix type="matrix" values="0 0 0 0 0 0 0 0 0 0 0 0 0 0 0 0 0 0 0.25 0"/>
<feBlend mode="normal" in2="BackgroundImageFix" result="effect1_dropShadow_35_1626"/>
<feBlend mode="normal" in="SourceGraphic" in2="effect1_dropShadow_35_1626" result="shape"/>
</filter>
<filter id="filter2_d_35_1626" x="178.615" y="196.456" width="47.5078" height="40.2312" filterUnits="userSpaceOnUse" color-interpolation-filters="sRGB">
<feFlood flood-opacity="0" result="BackgroundImageFix"/>
<feColorMatrix in="SourceAlpha" type="matrix" values="0 0 0 0 0 0 0 0 0 0 0 0 0 0 0 0 0 0 127 0" result="hardAlpha"/>
<feOffset dy="4"/>
<feGaussianBlur stdDeviation="2"/>
<feComposite in2="hardAlpha" operator="out"/>
<feColorMatrix type="matrix" values="0 0 0 0 0 0 0 0 0 0 0 0 0 0 0 0 0 0 0.25 0"/>
<feBlend mode="normal" in2="BackgroundImageFix" result="effect1_dropShadow_35_1626"/>
<feBlend mode="normal" in="SourceGraphic" in2="effect1_dropShadow_35_1626" result="shape"/>
</filter>
<filter id="filter3_d_35_1626" x="189.39" y="183.887" width="21.0742" height="19.8195" filterUnits="userSpaceOnUse" color-interpolation-filters="sRGB">
<feFlood flood-opacity="0" result="BackgroundImageFix"/>
<feColorMatrix in="SourceAlpha" type="matrix" values="0 0 0 0 0 0 0 0 0 0 0 0 0 0 0 0 0 0 127 0" result="hardAlpha"/>
<feOffset dy="4"/>
<feGaussianBlur stdDeviation="2"/>
<feComposite in2="hardAlpha" operator="out"/>
<feColorMatrix type="matrix" values="0 0 0 0 0 0 0 0 0 0 0 0 0 0 0 0 0 0 0.25 0"/>
<feBlend mode="normal" in2="BackgroundImageFix" result="effect1_dropShadow_35_1626"/>
<feBlend mode="normal" in="SourceGraphic" in2="effect1_dropShadow_35_1626" result="shape"/>
</filter>
<filter id="filter4_d_35_1626" x="247.754" y="129.477" width="47.5078" height="40.2312" filterUnits="userSpaceOnUse" color-interpolation-filters="sRGB">
<feFlood flood-opacity="0" result="BackgroundImageFix"/>
<feColorMatrix in="SourceAlpha" type="matrix" values="0 0 0 0 0 0 0 0 0 0 0 0 0 0 0 0 0 0 127 0" result="hardAlpha"/>
<feOffset dy="4"/>
<feGaussianBlur stdDeviation="2"/>
<feComposite in2="hardAlpha" operator="out"/>
<feColorMatrix type="matrix" values="0 0 0 0 0 0 0 0 0 0 0 0 0 0 0 0 0 0 0.25 0"/>
<feBlend mode="normal" in2="BackgroundImageFix" result="effect1_dropShadow_35_1626"/>
<feBlend mode="normal" in="SourceGraphic" in2="effect1_dropShadow_35_1626" result="shape"/>
</filter>
<filter id="filter5_d_35_1626" x="258.529" y="116.908" width="21.0742" height="19.8195" filterUnits="userSpaceOnUse" color-interpolation-filters="sRGB">
<feFlood flood-opacity="0" result="BackgroundImageFix"/>
<feColorMatrix in="SourceAlpha" type="matrix" values="0 0 0 0 0 0 0 0 0 0 0 0 0 0 0 0 0 0 127 0" result="hardAlpha"/>
<feOffset dy="4"/>
<feGaussianBlur stdDeviation="2"/>
<feComposite in2="hardAlpha" operator="out"/>
<feColorMatrix type="matrix" values="0 0 0 0 0 0 0 0 0 0 0 0 0 0 0 0 0 0 0.25 0"/>
<feBlend mode="normal" in2="BackgroundImageFix" result="effect1_dropShadow_35_1626"/>
<feBlend mode="normal" in="SourceGraphic" in2="effect1_dropShadow_35_1626" result="shape"/>
</filter>
<filter id="filter6_d_35_1626" x="198.369" y="150.087" width="47.5078" height="40.2374" filterUnits="userSpaceOnUse" color-interpolation-filters="sRGB">
<feFlood flood-opacity="0" result="BackgroundImageFix"/>
<feColorMatrix in="SourceAlpha" type="matrix" values="0 0 0 0 0 0 0 0 0 0 0 0 0 0 0 0 0 0 127 0" result="hardAlpha"/>
<feOffset dy="4"/>
<feGaussianBlur stdDeviation="2"/>
<feComposite in2="hardAlpha" operator="out"/>
<feColorMatrix type="matrix" values="0 0 0 0 0 0 0 0 0 0 0 0 0 0 0 0 0 0 0.25 0"/>
<feBlend mode="normal" in2="BackgroundImageFix" result="effect1_dropShadow_35_1626"/>
<feBlend mode="normal" in="SourceGraphic" in2="effect1_dropShadow_35_1626" result="shape"/>
</filter>
<filter id="filter7_d_35_1626" x="209.144" y="137.516" width="21.0742" height="19.8218" filterUnits="userSpaceOnUse" color-interpolation-filters="sRGB">
<feFlood flood-opacity="0" result="BackgroundImageFix"/>
<feColorMatrix in="SourceAlpha" type="matrix" values="0 0 0 0 0 0 0 0 0 0 0 0 0 0 0 0 0 0 127 0" result="hardAlpha"/>
<feOffset dy="4"/>
<feGaussianBlur stdDeviation="2"/>
<feComposite in2="hardAlpha" operator="out"/>
<feColorMatrix type="matrix" values="0 0 0 0 0 0 0 0 0 0 0 0 0 0 0 0 0 0 0.25 0"/>
<feBlend mode="normal" in2="BackgroundImageFix" result="effect1_dropShadow_35_1626"/>
<feBlend mode="normal" in="SourceGraphic" in2="effect1_dropShadow_35_1626" result="shape"/>
</filter>
<filter id="filter8_d_35_1626" x="252.692" y="208.478" width="47.5078" height="40.2374" filterUnits="userSpaceOnUse" color-interpolation-filters="sRGB">
<feFlood flood-opacity="0" result="BackgroundImageFix"/>
<feColorMatrix in="SourceAlpha" type="matrix" values="0 0 0 0 0 0 0 0 0 0 0 0 0 0 0 0 0 0 127 0" result="hardAlpha"/>
<feOffset dy="4"/>
<feGaussianBlur stdDeviation="2"/>
<feComposite in2="hardAlpha" operator="out"/>
<feColorMatrix type="matrix" values="0 0 0 0 0 0 0 0 0 0 0 0 0 0 0 0 0 0 0.25 0"/>
<feBlend mode="normal" in2="BackgroundImageFix" result="effect1_dropShadow_35_1626"/>
<feBlend mode="normal" in="SourceGraphic" in2="effect1_dropShadow_35_1626" result="shape"/>
</filter>
<filter id="filter9_d_35_1626" x="263.467" y="195.907" width="21.0742" height="19.8218" filterUnits="userSpaceOnUse" color-interpolation-filters="sRGB">
<feFlood flood-opacity="0" result="BackgroundImageFix"/>
<feColorMatrix in="SourceAlpha" type="matrix" values="0 0 0 0 0 0 0 0 0 0 0 0 0 0 0 0 0 0 127 0" result="hardAlpha"/>
<feOffset dy="4"/>
<feGaussianBlur stdDeviation="2"/>
<feComposite in2="hardAlpha" operator="out"/>
<feColorMatrix type="matrix" values="0 0 0 0 0 0 0 0 0 0 0 0 0 0 0 0 0 0 0.25 0"/>
<feBlend mode="normal" in2="BackgroundImageFix" result="effect1_dropShadow_35_1626"/>
<feBlend mode="normal" in="SourceGraphic" in2="effect1_dropShadow_35_1626" result="shape"/>
</filter>
</defs>
</svg>
