<svg width="45" height="45" viewBox="0 0 45 45" fill="none" xmlns="http://www.w3.org/2000/svg">
<path d="M22.4234 0C10.0596 0 0 10.0596 0 22.4234C0 34.7871 10.0596 44.8467 22.4234 44.8467C34.7871 44.8467 44.8467 34.7871 44.8467 22.4234C44.8467 10.0596 34.7871 0 22.4234 0ZM22.4234 39.2885C13.1231 39.2885 5.5582 31.7229 5.5582 22.4234C5.5582 13.1231 13.1231 5.5568 22.4234 5.5568C31.7236 5.5568 39.2885 13.1231 39.2885 22.4234C39.2885 31.7229 31.7229 39.2885 22.4234 39.2885Z" fill="#596E95"/>
<path d="M22.4536 12.5993C21.6795 12.5993 21.0122 12.3623 20.4595 11.887C19.9069 11.4103 19.6313 10.7346 19.6313 9.86132C19.6313 9.07031 19.9125 8.41851 20.4792 7.90875C21.0452 7.39617 21.7041 7.13953 22.4536 7.13953C23.1757 7.13953 23.8191 7.37015 24.3774 7.83562C24.9342 8.29898 25.2162 8.97539 25.2162 9.86132C25.2162 10.7212 24.942 11.3899 24.3963 11.8779C23.8507 12.3595 23.2031 12.5993 22.4536 12.5993ZM25.2162 18.3705V34.5122C25.2162 35.6302 24.9476 36.476 24.4167 37.0491C23.8873 37.62 23.2109 37.9076 22.3924 37.9076C21.574 37.9076 20.9067 37.6158 20.397 37.0287C19.8844 36.4416 19.6306 35.6027 19.6306 34.5122V18.5358C19.6306 17.4305 19.8844 16.5973 20.397 16.039C20.9067 15.4786 21.574 15.203 22.3924 15.203C23.2109 15.203 23.8873 15.4786 24.4167 16.039C24.9476 16.5966 25.2162 17.377 25.2162 18.3705Z" fill="#596E95"/>
</svg>
