<svg width="43" height="43" viewBox="0 0 43 43" fill="none" xmlns="http://www.w3.org/2000/svg">
<g filter="url(#filter0_d_11_5347)">
<path d="M27.3333 0L31.8056 4.47222L26.1861 10.0528L28.9472 12.8139L34.5278 7.19444L39 11.6667V0H27.3333ZM4 11.6667L8.47222 7.19444L14.0528 12.8139L16.8139 10.0528L11.1944 4.47222L15.6667 0H4V11.6667ZM15.6667 35L11.1944 30.5278L16.8139 24.9472L14.0528 22.1861L8.47222 27.8056L4 23.3333V35H15.6667ZM39 23.3333L34.5278 27.8056L28.9472 22.1861L26.1861 24.9472L31.8056 30.5278L27.3333 35H39V23.3333Z" fill="#596E95"/>
</g>
<defs>
<filter id="filter0_d_11_5347" x="0" y="0" width="43" height="43" filterUnits="userSpaceOnUse" color-interpolation-filters="sRGB">
<feFlood flood-opacity="0" result="BackgroundImageFix"/>
<feColorMatrix in="SourceAlpha" type="matrix" values="0 0 0 0 0 0 0 0 0 0 0 0 0 0 0 0 0 0 127 0" result="hardAlpha"/>
<feOffset dy="4"/>
<feGaussianBlur stdDeviation="2"/>
<feComposite in2="hardAlpha" operator="out"/>
<feColorMatrix type="matrix" values="0 0 0 0 0 0 0 0 0 0 0 0 0 0 0 0 0 0 0.25 0"/>
<feBlend mode="normal" in2="BackgroundImageFix" result="effect1_dropShadow_11_5347"/>
<feBlend mode="normal" in="SourceGraphic" in2="effect1_dropShadow_11_5347" result="shape"/>
</filter>
</defs>
</svg>
